<?xml version="1.0" encoding="utf-8" standalone="no"?>
<!DOCTYPE svg PUBLIC "-//W3C//DTD SVG 1.1//EN"
  "http://www.w3.org/Graphics/SVG/1.1/DTD/svg11.dtd">
<svg xmlns:xlink="http://www.w3.org/1999/xlink" width="864pt" height="504pt" viewBox="0 0 864 504" xmlns="http://www.w3.org/2000/svg" version="1.1">
 <metadata>
  <rdf:RDF xmlns:dc="http://purl.org/dc/elements/1.1/" xmlns:cc="http://creativecommons.org/ns#" xmlns:rdf="http://www.w3.org/1999/02/22-rdf-syntax-ns#">
   <cc:Work>
    <dc:type rdf:resource="http://purl.org/dc/dcmitype/StillImage"/>
    <dc:date>2026-05-04T01:23:15.905701</dc:date>
    <dc:format>image/svg+xml</dc:format>
    <dc:creator>
     <cc:Agent>
      <dc:title>Matplotlib v3.10.8, https://matplotlib.org/</dc:title>
     </cc:Agent>
    </dc:creator>
   </cc:Work>
  </rdf:RDF>
 </metadata>
 <defs>
  <style type="text/css">*{stroke-linejoin: round; stroke-linecap: butt}</style>
 </defs>
 <g id="figure_1">
  <g id="patch_1">
   <path d="M 0 504 
L 864 504 
L 864 0 
L 0 0 
z
" style="fill: #ffffff"/>
  </g>
  <g id="axes_1">
   <g id="patch_2">
    <path d="M 85.236 434.964 
L 843.264 434.964 
L 843.264 41.136 
L 85.236 41.136 
z
" style="fill: #ffffff"/>
   </g>
   <g id="matplotlib.axis_1">
    <g id="xtick_1">
     <g id="line2d_1">
      <path d="M 219.724839 434.964 
L 219.724839 41.136 
" clip-path="url(#pf7bbbe1af1)" style="fill: none; stroke: #cccccc; stroke-opacity: 0.3; stroke-width: 0.8; stroke-linecap: round"/>
     </g>
     <g id="text_1">
      <!-- bin1 -->
      <g style="fill: #262626" transform="translate(200.517464 456.63725) scale(0.176 -0.176)">
       <defs>
        <path id="DejaVuSans-62" d="M 3116 1747 
Q 3116 2381 2855 2742 
Q 2594 3103 2138 3103 
Q 1681 3103 1420 2742 
Q 1159 2381 1159 1747 
Q 1159 1113 1420 752 
Q 1681 391 2138 391 
Q 2594 391 2855 752 
Q 3116 1113 3116 1747 
z
M 1159 2969 
Q 1341 3281 1617 3432 
Q 1894 3584 2278 3584 
Q 2916 3584 3314 3078 
Q 3713 2572 3713 1747 
Q 3713 922 3314 415 
Q 2916 -91 2278 -91 
Q 1894 -91 1617 61 
Q 1341 213 1159 525 
L 1159 0 
L 581 0 
L 581 4863 
L 1159 4863 
L 1159 2969 
z
" transform="scale(0.015625)"/>
        <path id="DejaVuSans-69" d="M 603 3500 
L 1178 3500 
L 1178 0 
L 603 0 
L 603 3500 
z
M 603 4863 
L 1178 4863 
L 1178 4134 
L 603 4134 
L 603 4863 
z
" transform="scale(0.015625)"/>
        <path id="DejaVuSans-6e" d="M 3513 2113 
L 3513 0 
L 2938 0 
L 2938 2094 
Q 2938 2591 2744 2837 
Q 2550 3084 2163 3084 
Q 1697 3084 1428 2787 
Q 1159 2491 1159 1978 
L 1159 0 
L 581 0 
L 581 3500 
L 1159 3500 
L 1159 2956 
Q 1366 3272 1645 3428 
Q 1925 3584 2291 3584 
Q 2894 3584 3203 3211 
Q 3513 2838 3513 2113 
z
" transform="scale(0.015625)"/>
        <path id="DejaVuSans-31" d="M 794 531 
L 1825 531 
L 1825 4091 
L 703 3866 
L 703 4441 
L 1819 4666 
L 2450 4666 
L 2450 531 
L 3481 531 
L 3481 0 
L 794 0 
L 794 531 
z
" transform="scale(0.015625)"/>
       </defs>
       <use xlink:href="#DejaVuSans-62"/>
       <use xlink:href="#DejaVuSans-69" transform="translate(63.476562 0)"/>
       <use xlink:href="#DejaVuSans-6e" transform="translate(91.259766 0)"/>
       <use xlink:href="#DejaVuSans-31" transform="translate(154.638672 0)"/>
      </g>
     </g>
    </g>
    <g id="xtick_2">
     <g id="line2d_2">
      <path d="M 464.25 434.964 
L 464.25 41.136 
" clip-path="url(#pf7bbbe1af1)" style="fill: none; stroke: #cccccc; stroke-opacity: 0.3; stroke-width: 0.8; stroke-linecap: round"/>
     </g>
     <g id="text_2">
      <!-- bin2 -->
      <g style="fill: #262626" transform="translate(445.042625 456.63725) scale(0.176 -0.176)">
       <defs>
        <path id="DejaVuSans-32" d="M 1228 531 
L 3431 531 
L 3431 0 
L 469 0 
L 469 531 
Q 828 903 1448 1529 
Q 2069 2156 2228 2338 
Q 2531 2678 2651 2914 
Q 2772 3150 2772 3378 
Q 2772 3750 2511 3984 
Q 2250 4219 1831 4219 
Q 1534 4219 1204 4116 
Q 875 4013 500 3803 
L 500 4441 
Q 881 4594 1212 4672 
Q 1544 4750 1819 4750 
Q 2544 4750 2975 4387 
Q 3406 4025 3406 3419 
Q 3406 3131 3298 2873 
Q 3191 2616 2906 2266 
Q 2828 2175 2409 1742 
Q 1991 1309 1228 531 
z
" transform="scale(0.015625)"/>
       </defs>
       <use xlink:href="#DejaVuSans-62"/>
       <use xlink:href="#DejaVuSans-69" transform="translate(63.476562 0)"/>
       <use xlink:href="#DejaVuSans-6e" transform="translate(91.259766 0)"/>
       <use xlink:href="#DejaVuSans-32" transform="translate(154.638672 0)"/>
      </g>
     </g>
    </g>
    <g id="xtick_3">
     <g id="line2d_3">
      <path d="M 708.775161 434.964 
L 708.775161 41.136 
" clip-path="url(#pf7bbbe1af1)" style="fill: none; stroke: #cccccc; stroke-opacity: 0.3; stroke-width: 0.8; stroke-linecap: round"/>
     </g>
     <g id="text_3">
      <!-- bin3 -->
      <g style="fill: #262626" transform="translate(689.567786 456.63725) scale(0.176 -0.176)">
       <defs>
        <path id="DejaVuSans-33" d="M 2597 2516 
Q 3050 2419 3304 2112 
Q 3559 1806 3559 1356 
Q 3559 666 3084 287 
Q 2609 -91 1734 -91 
Q 1441 -91 1130 -33 
Q 819 25 488 141 
L 488 750 
Q 750 597 1062 519 
Q 1375 441 1716 441 
Q 2309 441 2620 675 
Q 2931 909 2931 1356 
Q 2931 1769 2642 2001 
Q 2353 2234 1838 2234 
L 1294 2234 
L 1294 2753 
L 1863 2753 
Q 2328 2753 2575 2939 
Q 2822 3125 2822 3475 
Q 2822 3834 2567 4026 
Q 2313 4219 1838 4219 
Q 1578 4219 1281 4162 
Q 984 4106 628 3988 
L 628 4550 
Q 988 4650 1302 4700 
Q 1616 4750 1894 4750 
Q 2613 4750 3031 4423 
Q 3450 4097 3450 3541 
Q 3450 3153 3228 2886 
Q 3006 2619 2597 2516 
z
" transform="scale(0.015625)"/>
       </defs>
       <use xlink:href="#DejaVuSans-62"/>
       <use xlink:href="#DejaVuSans-69" transform="translate(63.476562 0)"/>
       <use xlink:href="#DejaVuSans-6e" transform="translate(91.259766 0)"/>
       <use xlink:href="#DejaVuSans-33" transform="translate(154.638672 0)"/>
      </g>
     </g>
    </g>
    <g id="text_4">
     <!-- Validation bin -->
     <g style="fill: #262626" transform="translate(398.9475 478.8865) scale(0.192 -0.192)">
      <defs>
       <path id="DejaVuSans-56" d="M 1831 0 
L 50 4666 
L 709 4666 
L 2188 738 
L 3669 4666 
L 4325 4666 
L 2547 0 
L 1831 0 
z
" transform="scale(0.015625)"/>
       <path id="DejaVuSans-61" d="M 2194 1759 
Q 1497 1759 1228 1600 
Q 959 1441 959 1056 
Q 959 750 1161 570 
Q 1363 391 1709 391 
Q 2188 391 2477 730 
Q 2766 1069 2766 1631 
L 2766 1759 
L 2194 1759 
z
M 3341 1997 
L 3341 0 
L 2766 0 
L 2766 531 
Q 2569 213 2275 61 
Q 1981 -91 1556 -91 
Q 1019 -91 701 211 
Q 384 513 384 1019 
Q 384 1609 779 1909 
Q 1175 2209 1959 2209 
L 2766 2209 
L 2766 2266 
Q 2766 2663 2505 2880 
Q 2244 3097 1772 3097 
Q 1472 3097 1187 3025 
Q 903 2953 641 2809 
L 641 3341 
Q 956 3463 1253 3523 
Q 1550 3584 1831 3584 
Q 2591 3584 2966 3190 
Q 3341 2797 3341 1997 
z
" transform="scale(0.015625)"/>
       <path id="DejaVuSans-6c" d="M 603 4863 
L 1178 4863 
L 1178 0 
L 603 0 
L 603 4863 
z
" transform="scale(0.015625)"/>
       <path id="DejaVuSans-64" d="M 2906 2969 
L 2906 4863 
L 3481 4863 
L 3481 0 
L 2906 0 
L 2906 525 
Q 2725 213 2448 61 
Q 2172 -91 1784 -91 
Q 1150 -91 751 415 
Q 353 922 353 1747 
Q 353 2572 751 3078 
Q 1150 3584 1784 3584 
Q 2172 3584 2448 3432 
Q 2725 3281 2906 2969 
z
M 947 1747 
Q 947 1113 1208 752 
Q 1469 391 1925 391 
Q 2381 391 2643 752 
Q 2906 1113 2906 1747 
Q 2906 2381 2643 2742 
Q 2381 3103 1925 3103 
Q 1469 3103 1208 2742 
Q 947 2381 947 1747 
z
" transform="scale(0.015625)"/>
       <path id="DejaVuSans-74" d="M 1172 4494 
L 1172 3500 
L 2356 3500 
L 2356 3053 
L 1172 3053 
L 1172 1153 
Q 1172 725 1289 603 
Q 1406 481 1766 481 
L 2356 481 
L 2356 0 
L 1766 0 
Q 1100 0 847 248 
Q 594 497 594 1153 
L 594 3053 
L 172 3053 
L 172 3500 
L 594 3500 
L 594 4494 
L 1172 4494 
z
" transform="scale(0.015625)"/>
       <path id="DejaVuSans-6f" d="M 1959 3097 
Q 1497 3097 1228 2736 
Q 959 2375 959 1747 
Q 959 1119 1226 758 
Q 1494 397 1959 397 
Q 2419 397 2687 759 
Q 2956 1122 2956 1747 
Q 2956 2369 2687 2733 
Q 2419 3097 1959 3097 
z
M 1959 3584 
Q 2709 3584 3137 3096 
Q 3566 2609 3566 1747 
Q 3566 888 3137 398 
Q 2709 -91 1959 -91 
Q 1206 -91 779 398 
Q 353 888 353 1747 
Q 353 2609 779 3096 
Q 1206 3584 1959 3584 
z
" transform="scale(0.015625)"/>
       <path id="DejaVuSans-20" transform="scale(0.015625)"/>
      </defs>
      <use xlink:href="#DejaVuSans-56"/>
      <use xlink:href="#DejaVuSans-61" transform="translate(60.658203 0)"/>
      <use xlink:href="#DejaVuSans-6c" transform="translate(121.9375 0)"/>
      <use xlink:href="#DejaVuSans-69" transform="translate(149.720703 0)"/>
      <use xlink:href="#DejaVuSans-64" transform="translate(177.503906 0)"/>
      <use xlink:href="#DejaVuSans-61" transform="translate(240.980469 0)"/>
      <use xlink:href="#DejaVuSans-74" transform="translate(302.259766 0)"/>
      <use xlink:href="#DejaVuSans-69" transform="translate(341.46875 0)"/>
      <use xlink:href="#DejaVuSans-6f" transform="translate(369.251953 0)"/>
      <use xlink:href="#DejaVuSans-6e" transform="translate(430.433594 0)"/>
      <use xlink:href="#DejaVuSans-20" transform="translate(493.8125 0)"/>
      <use xlink:href="#DejaVuSans-62" transform="translate(525.599609 0)"/>
      <use xlink:href="#DejaVuSans-69" transform="translate(589.076172 0)"/>
      <use xlink:href="#DejaVuSans-6e" transform="translate(616.859375 0)"/>
     </g>
    </g>
   </g>
   <g id="matplotlib.axis_2">
    <g id="ytick_1">
     <g id="line2d_4">
      <path d="M 85.236 402.145 
L 843.264 402.145 
" clip-path="url(#pf7bbbe1af1)" style="fill: none; stroke: #cccccc; stroke-opacity: 0.3; stroke-width: 0.8; stroke-linecap: round"/>
     </g>
     <g id="text_5">
      <!-- 0 -->
      <g style="fill: #262626" transform="translate(65.738 408.831625) scale(0.176 -0.176)">
       <defs>
        <path id="DejaVuSans-30" d="M 2034 4250 
Q 1547 4250 1301 3770 
Q 1056 3291 1056 2328 
Q 1056 1369 1301 889 
Q 1547 409 2034 409 
Q 2525 409 2770 889 
Q 3016 1369 3016 2328 
Q 3016 3291 2770 3770 
Q 2525 4250 2034 4250 
z
M 2034 4750 
Q 2819 4750 3233 4129 
Q 3647 3509 3647 2328 
Q 3647 1150 3233 529 
Q 2819 -91 2034 -91 
Q 1250 -91 836 529 
Q 422 1150 422 2328 
Q 422 3509 836 4129 
Q 1250 4750 2034 4750 
z
" transform="scale(0.015625)"/>
       </defs>
       <use xlink:href="#DejaVuSans-30"/>
      </g>
     </g>
    </g>
    <g id="ytick_2">
     <g id="line2d_5">
      <path d="M 85.236 336.507 
L 843.264 336.507 
" clip-path="url(#pf7bbbe1af1)" style="fill: none; stroke: #cccccc; stroke-opacity: 0.3; stroke-width: 0.8; stroke-linecap: round"/>
     </g>
     <g id="text_6">
      <!-- 20 -->
      <g style="fill: #262626" transform="translate(54.54 343.193625) scale(0.176 -0.176)">
       <use xlink:href="#DejaVuSans-32"/>
       <use xlink:href="#DejaVuSans-30" transform="translate(63.623047 0)"/>
      </g>
     </g>
    </g>
    <g id="ytick_3">
     <g id="line2d_6">
      <path d="M 85.236 270.869 
L 843.264 270.869 
" clip-path="url(#pf7bbbe1af1)" style="fill: none; stroke: #cccccc; stroke-opacity: 0.3; stroke-width: 0.8; stroke-linecap: round"/>
     </g>
     <g id="text_7">
      <!-- 40 -->
      <g style="fill: #262626" transform="translate(54.54 277.555625) scale(0.176 -0.176)">
       <defs>
        <path id="DejaVuSans-34" d="M 2419 4116 
L 825 1625 
L 2419 1625 
L 2419 4116 
z
M 2253 4666 
L 3047 4666 
L 3047 1625 
L 3713 1625 
L 3713 1100 
L 3047 1100 
L 3047 0 
L 2419 0 
L 2419 1100 
L 313 1100 
L 313 1709 
L 2253 4666 
z
" transform="scale(0.015625)"/>
       </defs>
       <use xlink:href="#DejaVuSans-34"/>
       <use xlink:href="#DejaVuSans-30" transform="translate(63.623047 0)"/>
      </g>
     </g>
    </g>
    <g id="ytick_4">
     <g id="line2d_7">
      <path d="M 85.236 205.231 
L 843.264 205.231 
" clip-path="url(#pf7bbbe1af1)" style="fill: none; stroke: #cccccc; stroke-opacity: 0.3; stroke-width: 0.8; stroke-linecap: round"/>
     </g>
     <g id="text_8">
      <!-- 60 -->
      <g style="fill: #262626" transform="translate(54.54 211.917625) scale(0.176 -0.176)">
       <defs>
        <path id="DejaVuSans-36" d="M 2113 2584 
Q 1688 2584 1439 2293 
Q 1191 2003 1191 1497 
Q 1191 994 1439 701 
Q 1688 409 2113 409 
Q 2538 409 2786 701 
Q 3034 994 3034 1497 
Q 3034 2003 2786 2293 
Q 2538 2584 2113 2584 
z
M 3366 4563 
L 3366 3988 
Q 3128 4100 2886 4159 
Q 2644 4219 2406 4219 
Q 1781 4219 1451 3797 
Q 1122 3375 1075 2522 
Q 1259 2794 1537 2939 
Q 1816 3084 2150 3084 
Q 2853 3084 3261 2657 
Q 3669 2231 3669 1497 
Q 3669 778 3244 343 
Q 2819 -91 2113 -91 
Q 1303 -91 875 529 
Q 447 1150 447 2328 
Q 447 3434 972 4092 
Q 1497 4750 2381 4750 
Q 2619 4750 2861 4703 
Q 3103 4656 3366 4563 
z
" transform="scale(0.015625)"/>
       </defs>
       <use xlink:href="#DejaVuSans-36"/>
       <use xlink:href="#DejaVuSans-30" transform="translate(63.623047 0)"/>
      </g>
     </g>
    </g>
    <g id="ytick_5">
     <g id="line2d_8">
      <path d="M 85.236 139.593 
L 843.264 139.593 
" clip-path="url(#pf7bbbe1af1)" style="fill: none; stroke: #cccccc; stroke-opacity: 0.3; stroke-width: 0.8; stroke-linecap: round"/>
     </g>
     <g id="text_9">
      <!-- 80 -->
      <g style="fill: #262626" transform="translate(54.54 146.279625) scale(0.176 -0.176)">
       <defs>
        <path id="DejaVuSans-38" d="M 2034 2216 
Q 1584 2216 1326 1975 
Q 1069 1734 1069 1313 
Q 1069 891 1326 650 
Q 1584 409 2034 409 
Q 2484 409 2743 651 
Q 3003 894 3003 1313 
Q 3003 1734 2745 1975 
Q 2488 2216 2034 2216 
z
M 1403 2484 
Q 997 2584 770 2862 
Q 544 3141 544 3541 
Q 544 4100 942 4425 
Q 1341 4750 2034 4750 
Q 2731 4750 3128 4425 
Q 3525 4100 3525 3541 
Q 3525 3141 3298 2862 
Q 3072 2584 2669 2484 
Q 3125 2378 3379 2068 
Q 3634 1759 3634 1313 
Q 3634 634 3220 271 
Q 2806 -91 2034 -91 
Q 1263 -91 848 271 
Q 434 634 434 1313 
Q 434 1759 690 2068 
Q 947 2378 1403 2484 
z
M 1172 3481 
Q 1172 3119 1398 2916 
Q 1625 2713 2034 2713 
Q 2441 2713 2670 2916 
Q 2900 3119 2900 3481 
Q 2900 3844 2670 4047 
Q 2441 4250 2034 4250 
Q 1625 4250 1398 4047 
Q 1172 3844 1172 3481 
z
" transform="scale(0.015625)"/>
       </defs>
       <use xlink:href="#DejaVuSans-38"/>
       <use xlink:href="#DejaVuSans-30" transform="translate(63.623047 0)"/>
      </g>
     </g>
    </g>
    <g id="ytick_6">
     <g id="line2d_9">
      <path d="M 85.236 73.955 
L 843.264 73.955 
" clip-path="url(#pf7bbbe1af1)" style="fill: none; stroke: #cccccc; stroke-opacity: 0.3; stroke-width: 0.8; stroke-linecap: round"/>
     </g>
     <g id="text_10">
      <!-- 100 -->
      <g style="fill: #262626" transform="translate(43.342 80.641625) scale(0.176 -0.176)">
       <use xlink:href="#DejaVuSans-31"/>
       <use xlink:href="#DejaVuSans-30" transform="translate(63.623047 0)"/>
       <use xlink:href="#DejaVuSans-30" transform="translate(127.246094 0)"/>
      </g>
     </g>
    </g>
    <g id="text_11">
     <!-- Accuracy (%) -->
     <g style="fill: #262626" transform="translate(35.349 301.5435) rotate(-90) scale(0.192 -0.192)">
      <defs>
       <path id="DejaVuSans-41" d="M 2188 4044 
L 1331 1722 
L 3047 1722 
L 2188 4044 
z
M 1831 4666 
L 2547 4666 
L 4325 0 
L 3669 0 
L 3244 1197 
L 1141 1197 
L 716 0 
L 50 0 
L 1831 4666 
z
" transform="scale(0.015625)"/>
       <path id="DejaVuSans-63" d="M 3122 3366 
L 3122 2828 
Q 2878 2963 2633 3030 
Q 2388 3097 2138 3097 
Q 1578 3097 1268 2742 
Q 959 2388 959 1747 
Q 959 1106 1268 751 
Q 1578 397 2138 397 
Q 2388 397 2633 464 
Q 2878 531 3122 666 
L 3122 134 
Q 2881 22 2623 -34 
Q 2366 -91 2075 -91 
Q 1284 -91 818 406 
Q 353 903 353 1747 
Q 353 2603 823 3093 
Q 1294 3584 2113 3584 
Q 2378 3584 2631 3529 
Q 2884 3475 3122 3366 
z
" transform="scale(0.015625)"/>
       <path id="DejaVuSans-75" d="M 544 1381 
L 544 3500 
L 1119 3500 
L 1119 1403 
Q 1119 906 1312 657 
Q 1506 409 1894 409 
Q 2359 409 2629 706 
Q 2900 1003 2900 1516 
L 2900 3500 
L 3475 3500 
L 3475 0 
L 2900 0 
L 2900 538 
Q 2691 219 2414 64 
Q 2138 -91 1772 -91 
Q 1169 -91 856 284 
Q 544 659 544 1381 
z
M 1991 3584 
L 1991 3584 
z
" transform="scale(0.015625)"/>
       <path id="DejaVuSans-72" d="M 2631 2963 
Q 2534 3019 2420 3045 
Q 2306 3072 2169 3072 
Q 1681 3072 1420 2755 
Q 1159 2438 1159 1844 
L 1159 0 
L 581 0 
L 581 3500 
L 1159 3500 
L 1159 2956 
Q 1341 3275 1631 3429 
Q 1922 3584 2338 3584 
Q 2397 3584 2469 3576 
Q 2541 3569 2628 3553 
L 2631 2963 
z
" transform="scale(0.015625)"/>
       <path id="DejaVuSans-79" d="M 2059 -325 
Q 1816 -950 1584 -1140 
Q 1353 -1331 966 -1331 
L 506 -1331 
L 506 -850 
L 844 -850 
Q 1081 -850 1212 -737 
Q 1344 -625 1503 -206 
L 1606 56 
L 191 3500 
L 800 3500 
L 1894 763 
L 2988 3500 
L 3597 3500 
L 2059 -325 
z
" transform="scale(0.015625)"/>
       <path id="DejaVuSans-28" d="M 1984 4856 
Q 1566 4138 1362 3434 
Q 1159 2731 1159 2009 
Q 1159 1288 1364 580 
Q 1569 -128 1984 -844 
L 1484 -844 
Q 1016 -109 783 600 
Q 550 1309 550 2009 
Q 550 2706 781 3412 
Q 1013 4119 1484 4856 
L 1984 4856 
z
" transform="scale(0.015625)"/>
       <path id="DejaVuSans-25" d="M 4653 2053 
Q 4381 2053 4226 1822 
Q 4072 1591 4072 1178 
Q 4072 772 4226 539 
Q 4381 306 4653 306 
Q 4919 306 5073 539 
Q 5228 772 5228 1178 
Q 5228 1588 5073 1820 
Q 4919 2053 4653 2053 
z
M 4653 2450 
Q 5147 2450 5437 2106 
Q 5728 1763 5728 1178 
Q 5728 594 5436 251 
Q 5144 -91 4653 -91 
Q 4153 -91 3862 251 
Q 3572 594 3572 1178 
Q 3572 1766 3864 2108 
Q 4156 2450 4653 2450 
z
M 1428 4353 
Q 1159 4353 1004 4120 
Q 850 3888 850 3481 
Q 850 3069 1003 2837 
Q 1156 2606 1428 2606 
Q 1700 2606 1854 2837 
Q 2009 3069 2009 3481 
Q 2009 3884 1853 4118 
Q 1697 4353 1428 4353 
z
M 4250 4750 
L 4750 4750 
L 1831 -91 
L 1331 -91 
L 4250 4750 
z
M 1428 4750 
Q 1922 4750 2215 4408 
Q 2509 4066 2509 3481 
Q 2509 2891 2217 2550 
Q 1925 2209 1428 2209 
Q 931 2209 642 2551 
Q 353 2894 353 3481 
Q 353 4063 643 4406 
Q 934 4750 1428 4750 
z
" transform="scale(0.015625)"/>
       <path id="DejaVuSans-29" d="M 513 4856 
L 1013 4856 
Q 1481 4119 1714 3412 
Q 1947 2706 1947 2009 
Q 1947 1309 1714 600 
Q 1481 -109 1013 -844 
L 513 -844 
Q 928 -128 1133 580 
Q 1338 1288 1338 2009 
Q 1338 2731 1133 3434 
Q 928 4138 513 4856 
z
" transform="scale(0.015625)"/>
      </defs>
      <use xlink:href="#DejaVuSans-41"/>
      <use xlink:href="#DejaVuSans-63" transform="translate(66.658203 0)"/>
      <use xlink:href="#DejaVuSans-63" transform="translate(121.638672 0)"/>
      <use xlink:href="#DejaVuSans-75" transform="translate(176.619141 0)"/>
      <use xlink:href="#DejaVuSans-72" transform="translate(239.998047 0)"/>
      <use xlink:href="#DejaVuSans-61" transform="translate(281.111328 0)"/>
      <use xlink:href="#DejaVuSans-63" transform="translate(342.390625 0)"/>
      <use xlink:href="#DejaVuSans-79" transform="translate(397.371094 0)"/>
      <use xlink:href="#DejaVuSans-20" transform="translate(456.550781 0)"/>
      <use xlink:href="#DejaVuSans-28" transform="translate(488.337891 0)"/>
      <use xlink:href="#DejaVuSans-25" transform="translate(527.351562 0)"/>
      <use xlink:href="#DejaVuSans-29" transform="translate(622.371094 0)"/>
     </g>
    </g>
   </g>
   <g id="LineCollection_1">
    <path d="M 219.724839 209.288794 
L 219.724839 200.407429 
" clip-path="url(#pf7bbbe1af1)" style="fill: none; stroke: #001c7f; stroke-width: 1.5"/>
    <path d="M 464.25 245.258038 
L 464.25 231.717135 
" clip-path="url(#pf7bbbe1af1)" style="fill: none; stroke: #001c7f; stroke-width: 1.5"/>
    <path d="M 708.775161 242.296939 
L 708.775161 229.755385 
" clip-path="url(#pf7bbbe1af1)" style="fill: none; stroke: #001c7f; stroke-width: 1.5"/>
   </g>
   <g id="line2d_10">
    <defs>
     <path id="mea6d234d1e" d="M 5 0 
L -5 -0 
" style="stroke: #001c7f"/>
    </defs>
    <g clip-path="url(#pf7bbbe1af1)">
     <use xlink:href="#mea6d234d1e" x="219.724839" y="209.288794" style="fill: #001c7f; stroke: #001c7f"/>
     <use xlink:href="#mea6d234d1e" x="464.25" y="245.258038" style="fill: #001c7f; stroke: #001c7f"/>
     <use xlink:href="#mea6d234d1e" x="708.775161" y="242.296939" style="fill: #001c7f; stroke: #001c7f"/>
    </g>
   </g>
   <g id="line2d_11">
    <g clip-path="url(#pf7bbbe1af1)">
     <use xlink:href="#mea6d234d1e" x="219.724839" y="200.407429" style="fill: #001c7f; stroke: #001c7f"/>
     <use xlink:href="#mea6d234d1e" x="464.25" y="231.717135" style="fill: #001c7f; stroke: #001c7f"/>
     <use xlink:href="#mea6d234d1e" x="708.775161" y="229.755385" style="fill: #001c7f; stroke: #001c7f"/>
    </g>
   </g>
   <g id="LineCollection_2">
    <path d="M 219.724839 214.180537 
L 219.724839 196.347101 
" clip-path="url(#pf7bbbe1af1)" style="fill: none; stroke: #12711c; stroke-width: 1.5"/>
    <path d="M 464.25 238.418408 
L 464.25 230.986516 
" clip-path="url(#pf7bbbe1af1)" style="fill: none; stroke: #12711c; stroke-width: 1.5"/>
    <path d="M 708.775161 244.919355 
L 708.775161 230.261713 
" clip-path="url(#pf7bbbe1af1)" style="fill: none; stroke: #12711c; stroke-width: 1.5"/>
   </g>
   <g id="line2d_12">
    <defs>
     <path id="m08775d5d85" d="M 5 0 
L -5 -0 
" style="stroke: #12711c"/>
    </defs>
    <g clip-path="url(#pf7bbbe1af1)">
     <use xlink:href="#m08775d5d85" x="219.724839" y="214.180537" style="fill: #12711c; stroke: #12711c"/>
     <use xlink:href="#m08775d5d85" x="464.25" y="238.418408" style="fill: #12711c; stroke: #12711c"/>
     <use xlink:href="#m08775d5d85" x="708.775161" y="244.919355" style="fill: #12711c; stroke: #12711c"/>
    </g>
   </g>
   <g id="line2d_13">
    <g clip-path="url(#pf7bbbe1af1)">
     <use xlink:href="#m08775d5d85" x="219.724839" y="196.347101" style="fill: #12711c; stroke: #12711c"/>
     <use xlink:href="#m08775d5d85" x="464.25" y="230.986516" style="fill: #12711c; stroke: #12711c"/>
     <use xlink:href="#m08775d5d85" x="708.775161" y="230.261713" style="fill: #12711c; stroke: #12711c"/>
    </g>
   </g>
   <g id="LineCollection_3">
    <path d="M 219.724839 208.940236 
L 219.724839 160.498014 
" clip-path="url(#pf7bbbe1af1)" style="fill: none; stroke: #8c0800; stroke-width: 1.5"/>
    <path d="M 464.25 241.744155 
L 464.25 231.730325 
" clip-path="url(#pf7bbbe1af1)" style="fill: none; stroke: #8c0800; stroke-width: 1.5"/>
    <path d="M 708.775161 237.091727 
L 708.775161 227.849813 
" clip-path="url(#pf7bbbe1af1)" style="fill: none; stroke: #8c0800; stroke-width: 1.5"/>
   </g>
   <g id="line2d_14">
    <defs>
     <path id="m66c6d6e672" d="M 5 0 
L -5 -0 
" style="stroke: #8c0800"/>
    </defs>
    <g clip-path="url(#pf7bbbe1af1)">
     <use xlink:href="#m66c6d6e672" x="219.724839" y="208.940236" style="fill: #8c0800; stroke: #8c0800"/>
     <use xlink:href="#m66c6d6e672" x="464.25" y="241.744155" style="fill: #8c0800; stroke: #8c0800"/>
     <use xlink:href="#m66c6d6e672" x="708.775161" y="237.091727" style="fill: #8c0800; stroke: #8c0800"/>
    </g>
   </g>
   <g id="line2d_15">
    <g clip-path="url(#pf7bbbe1af1)">
     <use xlink:href="#m66c6d6e672" x="219.724839" y="160.498014" style="fill: #8c0800; stroke: #8c0800"/>
     <use xlink:href="#m66c6d6e672" x="464.25" y="231.730325" style="fill: #8c0800; stroke: #8c0800"/>
     <use xlink:href="#m66c6d6e672" x="708.775161" y="227.849813" style="fill: #8c0800; stroke: #8c0800"/>
    </g>
   </g>
   <g id="LineCollection_4">
    <path d="M 219.724839 207.687594 
L 219.724839 202.118026 
" clip-path="url(#pf7bbbe1af1)" style="fill: none; stroke: #591e71; stroke-width: 1.5"/>
    <path d="M 464.25 241.547473 
L 464.25 237.834427 
" clip-path="url(#pf7bbbe1af1)" style="fill: none; stroke: #591e71; stroke-width: 1.5"/>
    <path d="M 708.775161 281.35193 
L 708.775161 219.854605 
" clip-path="url(#pf7bbbe1af1)" style="fill: none; stroke: #591e71; stroke-width: 1.5"/>
   </g>
   <g id="line2d_16">
    <defs>
     <path id="mef685eff82" d="M 5 0 
L -5 -0 
" style="stroke: #591e71"/>
    </defs>
    <g clip-path="url(#pf7bbbe1af1)">
     <use xlink:href="#mef685eff82" x="219.724839" y="207.687594" style="fill: #591e71; stroke: #591e71"/>
     <use xlink:href="#mef685eff82" x="464.25" y="241.547473" style="fill: #591e71; stroke: #591e71"/>
     <use xlink:href="#mef685eff82" x="708.775161" y="281.35193" style="fill: #591e71; stroke: #591e71"/>
    </g>
   </g>
   <g id="line2d_17">
    <g clip-path="url(#pf7bbbe1af1)">
     <use xlink:href="#mef685eff82" x="219.724839" y="202.118026" style="fill: #591e71; stroke: #591e71"/>
     <use xlink:href="#mef685eff82" x="464.25" y="237.834427" style="fill: #591e71; stroke: #591e71"/>
     <use xlink:href="#mef685eff82" x="708.775161" y="219.854605" style="fill: #591e71; stroke: #591e71"/>
    </g>
   </g>
   <g id="line2d_18">
    <path d="M 219.724839 204.848112 
L 464.25 238.487587 
L 708.775161 236.026162 
" clip-path="url(#pf7bbbe1af1)" style="fill: none; stroke-dasharray: 2,3.3; stroke-dashoffset: 0; stroke: #001c7f; stroke-width: 2"/>
    <defs>
     <path id="m391f65fab9" d="M 0 2.4 
C 0.636487 2.4 1.246992 2.147121 1.697056 1.697056 
C 2.147121 1.246992 2.4 0.636487 2.4 0 
C 2.4 -0.636487 2.147121 -1.246992 1.697056 -1.697056 
C 1.246992 -2.147121 0.636487 -2.4 0 -2.4 
C -0.636487 -2.4 -1.246992 -2.147121 -1.697056 -1.697056 
C -2.147121 -1.246992 -2.4 -0.636487 -2.4 0 
C -2.4 0.636487 -2.147121 1.246992 -1.697056 1.697056 
C -1.246992 2.147121 -0.636487 2.4 0 2.4 
z
" style="stroke: #001c7f"/>
    </defs>
    <g clip-path="url(#pf7bbbe1af1)">
     <use xlink:href="#m391f65fab9" x="219.724839" y="204.848112" style="fill: #001c7f; stroke: #001c7f"/>
     <use xlink:href="#m391f65fab9" x="464.25" y="238.487587" style="fill: #001c7f; stroke: #001c7f"/>
     <use xlink:href="#m391f65fab9" x="708.775161" y="236.026162" style="fill: #001c7f; stroke: #001c7f"/>
    </g>
   </g>
   <g id="line2d_19">
    <path d="M 219.724839 205.263819 
L 464.25 234.702462 
L 708.775161 237.590534 
" clip-path="url(#pf7bbbe1af1)" style="fill: none; stroke-dasharray: 2,3.3; stroke-dashoffset: 0; stroke: #12711c; stroke-width: 2"/>
    <defs>
     <path id="m0af7928f83" d="M 0 2.4 
C 0.636487 2.4 1.246992 2.147121 1.697056 1.697056 
C 2.147121 1.246992 2.4 0.636487 2.4 0 
C 2.4 -0.636487 2.147121 -1.246992 1.697056 -1.697056 
C 1.246992 -2.147121 0.636487 -2.4 0 -2.4 
C -0.636487 -2.4 -1.246992 -2.147121 -1.697056 -1.697056 
C -2.147121 -1.246992 -2.4 -0.636487 -2.4 0 
C -2.4 0.636487 -2.147121 1.246992 -1.697056 1.697056 
C -1.246992 2.147121 -0.636487 2.4 0 2.4 
z
" style="stroke: #12711c"/>
    </defs>
    <g clip-path="url(#pf7bbbe1af1)">
     <use xlink:href="#m0af7928f83" x="219.724839" y="205.263819" style="fill: #12711c; stroke: #12711c"/>
     <use xlink:href="#m0af7928f83" x="464.25" y="234.702462" style="fill: #12711c; stroke: #12711c"/>
     <use xlink:href="#m0af7928f83" x="708.775161" y="237.590534" style="fill: #12711c; stroke: #12711c"/>
    </g>
   </g>
   <g id="line2d_20">
    <path d="M 219.724839 184.719125 
L 464.25 236.73724 
L 708.775161 232.47077 
" clip-path="url(#pf7bbbe1af1)" style="fill: none; stroke-dasharray: 2,3.3; stroke-dashoffset: 0; stroke: #8c0800; stroke-width: 2"/>
    <defs>
     <path id="m367819789c" d="M 0 2.4 
C 0.636487 2.4 1.246992 2.147121 1.697056 1.697056 
C 2.147121 1.246992 2.4 0.636487 2.4 0 
C 2.4 -0.636487 2.147121 -1.246992 1.697056 -1.697056 
C 1.246992 -2.147121 0.636487 -2.4 0 -2.4 
C -0.636487 -2.4 -1.246992 -2.147121 -1.697056 -1.697056 
C -2.147121 -1.246992 -2.4 -0.636487 -2.4 0 
C -2.4 0.636487 -2.147121 1.246992 -1.697056 1.697056 
C -1.246992 2.147121 -0.636487 2.4 0 2.4 
z
" style="stroke: #8c0800"/>
    </defs>
    <g clip-path="url(#pf7bbbe1af1)">
     <use xlink:href="#m367819789c" x="219.724839" y="184.719125" style="fill: #8c0800; stroke: #8c0800"/>
     <use xlink:href="#m367819789c" x="464.25" y="236.73724" style="fill: #8c0800; stroke: #8c0800"/>
     <use xlink:href="#m367819789c" x="708.775161" y="232.47077" style="fill: #8c0800; stroke: #8c0800"/>
    </g>
   </g>
   <g id="line2d_21">
    <path d="M 219.724839 204.90281 
L 464.25 239.69095 
L 708.775161 250.603267 
" clip-path="url(#pf7bbbe1af1)" style="fill: none; stroke-dasharray: 2,3.3; stroke-dashoffset: 0; stroke: #591e71; stroke-width: 2"/>
    <defs>
     <path id="m9e3b55eac2" d="M 0 2.4 
C 0.636487 2.4 1.246992 2.147121 1.697056 1.697056 
C 2.147121 1.246992 2.4 0.636487 2.4 0 
C 2.4 -0.636487 2.147121 -1.246992 1.697056 -1.697056 
C 1.246992 -2.147121 0.636487 -2.4 0 -2.4 
C -0.636487 -2.4 -1.246992 -2.147121 -1.697056 -1.697056 
C -2.147121 -1.246992 -2.4 -0.636487 -2.4 0 
C -2.4 0.636487 -2.147121 1.246992 -1.697056 1.697056 
C -1.246992 2.147121 -0.636487 2.4 0 2.4 
z
" style="stroke: #591e71"/>
    </defs>
    <g clip-path="url(#pf7bbbe1af1)">
     <use xlink:href="#m9e3b55eac2" x="219.724839" y="204.90281" style="fill: #591e71; stroke: #591e71"/>
     <use xlink:href="#m9e3b55eac2" x="464.25" y="239.69095" style="fill: #591e71; stroke: #591e71"/>
     <use xlink:href="#m9e3b55eac2" x="708.775161" y="250.603267" style="fill: #591e71; stroke: #591e71"/>
    </g>
   </g>
   <g id="patch_3">
    <path d="M 85.236 434.964 
L 85.236 41.136 
" style="fill: none; stroke: #cccccc; stroke-linejoin: miter; stroke-linecap: square"/>
   </g>
   <g id="patch_4">
    <path d="M 843.264 434.964 
L 843.264 41.136 
" style="fill: none; stroke: #cccccc; stroke-linejoin: miter; stroke-linecap: square"/>
   </g>
   <g id="patch_5">
    <path d="M 85.236 434.964 
L 843.264 434.964 
" style="fill: none; stroke: #cccccc; stroke-linejoin: miter; stroke-linecap: square"/>
   </g>
   <g id="patch_6">
    <path d="M 85.236 41.136 
L 843.264 41.136 
" style="fill: none; stroke: #cccccc; stroke-linejoin: miter; stroke-linecap: square"/>
   </g>
   <g id="text_12">
    <!-- MQAR -->
    <g style="fill: #262626" transform="translate(431.7135 35.136) scale(0.192 -0.192)">
     <defs>
      <path id="DejaVuSans-Bold-4d" d="M 588 4666 
L 2119 4666 
L 3181 2169 
L 4250 4666 
L 5778 4666 
L 5778 0 
L 4641 0 
L 4641 3413 
L 3566 897 
L 2803 897 
L 1728 3413 
L 1728 0 
L 588 0 
L 588 4666 
z
" transform="scale(0.015625)"/>
      <path id="DejaVuSans-Bold-51" d="M 2847 -84 
L 2753 -84 
Q 1600 -84 959 553 
Q 319 1191 319 2328 
Q 319 3463 958 4106 
Q 1597 4750 2719 4750 
Q 3853 4750 4486 4112 
Q 5119 3475 5119 2328 
Q 5119 1541 4783 972 
Q 4447 403 3816 116 
L 4756 -934 
L 3609 -934 
L 2847 -84 
z
M 2719 3878 
Q 2169 3878 1866 3472 
Q 1563 3066 1563 2328 
Q 1563 1578 1859 1179 
Q 2156 781 2719 781 
Q 3272 781 3575 1187 
Q 3878 1594 3878 2328 
Q 3878 3066 3575 3472 
Q 3272 3878 2719 3878 
z
" transform="scale(0.015625)"/>
      <path id="DejaVuSans-Bold-41" d="M 3419 850 
L 1538 850 
L 1241 0 
L 31 0 
L 1759 4666 
L 3194 4666 
L 4922 0 
L 3713 0 
L 3419 850 
z
M 1838 1716 
L 3116 1716 
L 2478 3572 
L 1838 1716 
z
" transform="scale(0.015625)"/>
      <path id="DejaVuSans-Bold-52" d="M 2297 2597 
Q 2675 2597 2839 2737 
Q 3003 2878 3003 3200 
Q 3003 3519 2839 3656 
Q 2675 3794 2297 3794 
L 1791 3794 
L 1791 2597 
L 2297 2597 
z
M 1791 1766 
L 1791 0 
L 588 0 
L 588 4666 
L 2425 4666 
Q 3347 4666 3776 4356 
Q 4206 4047 4206 3378 
Q 4206 2916 3982 2619 
Q 3759 2322 3309 2181 
Q 3556 2125 3751 1926 
Q 3947 1728 4147 1325 
L 4800 0 
L 3519 0 
L 2950 1159 
Q 2778 1509 2601 1637 
Q 2425 1766 2131 1766 
L 1791 1766 
z
" transform="scale(0.015625)"/>
     </defs>
     <use xlink:href="#DejaVuSans-Bold-4d"/>
     <use xlink:href="#DejaVuSans-Bold-51" transform="translate(99.511719 0)"/>
     <use xlink:href="#DejaVuSans-Bold-41" transform="translate(184.521484 0)"/>
     <use xlink:href="#DejaVuSans-Bold-52" transform="translate(261.914062 0)"/>
    </g>
   </g>
   <g id="legend_1">
    <g id="LineCollection_5">
     <path d="M 329.479625 59.278187 
L 329.479625 49.278187 
" style="fill: none; stroke: #001c7f; stroke-width: 1.5"/>
    </g>
    <g id="line2d_22">
     <g>
      <use xlink:href="#mea6d234d1e" x="329.479625" y="59.278187" style="fill: #001c7f; stroke: #001c7f"/>
     </g>
    </g>
    <g id="line2d_23">
     <g>
      <use xlink:href="#mea6d234d1e" x="329.479625" y="49.278187" style="fill: #001c7f; stroke: #001c7f"/>
     </g>
    </g>
    <g id="line2d_24">
     <path d="M 319.479625 54.278187 
L 339.479625 54.278187 
" style="fill: none; stroke-dasharray: 2,3.3; stroke-dashoffset: 0; stroke: #001c7f; stroke-width: 2"/>
    </g>
    <g id="line2d_25">
     <g>
      <use xlink:href="#m391f65fab9" x="329.479625" y="54.278187" style="fill: #001c7f; stroke: #001c7f"/>
     </g>
    </g>
    <g id="text_13">
     <!-- hybsa|saa|saas|sasmamba|s41/2/41/42/43l1/2h16/64/256d0/0.1dr2mlppelnstp30k|stp60k0.001lr -->
     <g style="fill: #262626" transform="translate(347.479625 57.778187) scale(0.1 -0.1)">
      <defs>
       <path id="DejaVuSans-68" d="M 3513 2113 
L 3513 0 
L 2938 0 
L 2938 2094 
Q 2938 2591 2744 2837 
Q 2550 3084 2163 3084 
Q 1697 3084 1428 2787 
Q 1159 2491 1159 1978 
L 1159 0 
L 581 0 
L 581 4863 
L 1159 4863 
L 1159 2956 
Q 1366 3272 1645 3428 
Q 1925 3584 2291 3584 
Q 2894 3584 3203 3211 
Q 3513 2838 3513 2113 
z
" transform="scale(0.015625)"/>
       <path id="DejaVuSans-73" d="M 2834 3397 
L 2834 2853 
Q 2591 2978 2328 3040 
Q 2066 3103 1784 3103 
Q 1356 3103 1142 2972 
Q 928 2841 928 2578 
Q 928 2378 1081 2264 
Q 1234 2150 1697 2047 
L 1894 2003 
Q 2506 1872 2764 1633 
Q 3022 1394 3022 966 
Q 3022 478 2636 193 
Q 2250 -91 1575 -91 
Q 1294 -91 989 -36 
Q 684 19 347 128 
L 347 722 
Q 666 556 975 473 
Q 1284 391 1588 391 
Q 1994 391 2212 530 
Q 2431 669 2431 922 
Q 2431 1156 2273 1281 
Q 2116 1406 1581 1522 
L 1381 1569 
Q 847 1681 609 1914 
Q 372 2147 372 2553 
Q 372 3047 722 3315 
Q 1072 3584 1716 3584 
Q 2034 3584 2315 3537 
Q 2597 3491 2834 3397 
z
" transform="scale(0.015625)"/>
       <path id="DejaVuSans-7c" d="M 1344 4891 
L 1344 -1509 
L 813 -1509 
L 813 4891 
L 1344 4891 
z
" transform="scale(0.015625)"/>
       <path id="DejaVuSans-6d" d="M 3328 2828 
Q 3544 3216 3844 3400 
Q 4144 3584 4550 3584 
Q 5097 3584 5394 3201 
Q 5691 2819 5691 2113 
L 5691 0 
L 5113 0 
L 5113 2094 
Q 5113 2597 4934 2840 
Q 4756 3084 4391 3084 
Q 3944 3084 3684 2787 
Q 3425 2491 3425 1978 
L 3425 0 
L 2847 0 
L 2847 2094 
Q 2847 2600 2669 2842 
Q 2491 3084 2119 3084 
Q 1678 3084 1418 2786 
Q 1159 2488 1159 1978 
L 1159 0 
L 581 0 
L 581 3500 
L 1159 3500 
L 1159 2956 
Q 1356 3278 1631 3431 
Q 1906 3584 2284 3584 
Q 2666 3584 2933 3390 
Q 3200 3197 3328 2828 
z
" transform="scale(0.015625)"/>
       <path id="DejaVuSans-2f" d="M 1625 4666 
L 2156 4666 
L 531 -594 
L 0 -594 
L 1625 4666 
z
" transform="scale(0.015625)"/>
       <path id="DejaVuSans-35" d="M 691 4666 
L 3169 4666 
L 3169 4134 
L 1269 4134 
L 1269 2991 
Q 1406 3038 1543 3061 
Q 1681 3084 1819 3084 
Q 2600 3084 3056 2656 
Q 3513 2228 3513 1497 
Q 3513 744 3044 326 
Q 2575 -91 1722 -91 
Q 1428 -91 1123 -41 
Q 819 9 494 109 
L 494 744 
Q 775 591 1075 516 
Q 1375 441 1709 441 
Q 2250 441 2565 725 
Q 2881 1009 2881 1497 
Q 2881 1984 2565 2268 
Q 2250 2553 1709 2553 
Q 1456 2553 1204 2497 
Q 953 2441 691 2322 
L 691 4666 
z
" transform="scale(0.015625)"/>
       <path id="DejaVuSans-2e" d="M 684 794 
L 1344 794 
L 1344 0 
L 684 0 
L 684 794 
z
" transform="scale(0.015625)"/>
       <path id="DejaVuSans-70" d="M 1159 525 
L 1159 -1331 
L 581 -1331 
L 581 3500 
L 1159 3500 
L 1159 2969 
Q 1341 3281 1617 3432 
Q 1894 3584 2278 3584 
Q 2916 3584 3314 3078 
Q 3713 2572 3713 1747 
Q 3713 922 3314 415 
Q 2916 -91 2278 -91 
Q 1894 -91 1617 61 
Q 1341 213 1159 525 
z
M 3116 1747 
Q 3116 2381 2855 2742 
Q 2594 3103 2138 3103 
Q 1681 3103 1420 2742 
Q 1159 2381 1159 1747 
Q 1159 1113 1420 752 
Q 1681 391 2138 391 
Q 2594 391 2855 752 
Q 3116 1113 3116 1747 
z
" transform="scale(0.015625)"/>
       <path id="DejaVuSans-65" d="M 3597 1894 
L 3597 1613 
L 953 1613 
Q 991 1019 1311 708 
Q 1631 397 2203 397 
Q 2534 397 2845 478 
Q 3156 559 3463 722 
L 3463 178 
Q 3153 47 2828 -22 
Q 2503 -91 2169 -91 
Q 1331 -91 842 396 
Q 353 884 353 1716 
Q 353 2575 817 3079 
Q 1281 3584 2069 3584 
Q 2775 3584 3186 3129 
Q 3597 2675 3597 1894 
z
M 3022 2063 
Q 3016 2534 2758 2815 
Q 2500 3097 2075 3097 
Q 1594 3097 1305 2825 
Q 1016 2553 972 2059 
L 3022 2063 
z
" transform="scale(0.015625)"/>
       <path id="DejaVuSans-6b" d="M 581 4863 
L 1159 4863 
L 1159 1991 
L 2875 3500 
L 3609 3500 
L 1753 1863 
L 3688 0 
L 2938 0 
L 1159 1709 
L 1159 0 
L 581 0 
L 581 4863 
z
" transform="scale(0.015625)"/>
      </defs>
      <use xlink:href="#DejaVuSans-68"/>
      <use xlink:href="#DejaVuSans-79" transform="translate(63.378906 0)"/>
      <use xlink:href="#DejaVuSans-62" transform="translate(122.558594 0)"/>
      <use xlink:href="#DejaVuSans-73" transform="translate(186.035156 0)"/>
      <use xlink:href="#DejaVuSans-61" transform="translate(238.134766 0)"/>
      <use xlink:href="#DejaVuSans-7c" transform="translate(299.414062 0)"/>
      <use xlink:href="#DejaVuSans-73" transform="translate(333.105469 0)"/>
      <use xlink:href="#DejaVuSans-61" transform="translate(385.205078 0)"/>
      <use xlink:href="#DejaVuSans-61" transform="translate(446.484375 0)"/>
      <use xlink:href="#DejaVuSans-7c" transform="translate(507.763672 0)"/>
      <use xlink:href="#DejaVuSans-73" transform="translate(541.455078 0)"/>
      <use xlink:href="#DejaVuSans-61" transform="translate(593.554688 0)"/>
      <use xlink:href="#DejaVuSans-61" transform="translate(654.833984 0)"/>
      <use xlink:href="#DejaVuSans-73" transform="translate(716.113281 0)"/>
      <use xlink:href="#DejaVuSans-7c" transform="translate(768.212891 0)"/>
      <use xlink:href="#DejaVuSans-73" transform="translate(801.904297 0)"/>
      <use xlink:href="#DejaVuSans-61" transform="translate(854.003906 0)"/>
      <use xlink:href="#DejaVuSans-73" transform="translate(915.283203 0)"/>
      <use xlink:href="#DejaVuSans-6d" transform="translate(967.382812 0)"/>
      <use xlink:href="#DejaVuSans-61" transform="translate(1064.794922 0)"/>
      <use xlink:href="#DejaVuSans-6d" transform="translate(1126.074219 0)"/>
      <use xlink:href="#DejaVuSans-62" transform="translate(1223.486328 0)"/>
      <use xlink:href="#DejaVuSans-61" transform="translate(1286.962891 0)"/>
      <use xlink:href="#DejaVuSans-7c" transform="translate(1348.242188 0)"/>
      <use xlink:href="#DejaVuSans-73" transform="translate(1381.933594 0)"/>
      <use xlink:href="#DejaVuSans-34" transform="translate(1434.033203 0)"/>
      <use xlink:href="#DejaVuSans-31" transform="translate(1497.65625 0)"/>
      <use xlink:href="#DejaVuSans-2f" transform="translate(1561.279297 0)"/>
      <use xlink:href="#DejaVuSans-32" transform="translate(1594.970703 0)"/>
      <use xlink:href="#DejaVuSans-2f" transform="translate(1658.59375 0)"/>
      <use xlink:href="#DejaVuSans-34" transform="translate(1692.285156 0)"/>
      <use xlink:href="#DejaVuSans-31" transform="translate(1755.908203 0)"/>
      <use xlink:href="#DejaVuSans-2f" transform="translate(1819.53125 0)"/>
      <use xlink:href="#DejaVuSans-34" transform="translate(1853.222656 0)"/>
      <use xlink:href="#DejaVuSans-32" transform="translate(1916.845703 0)"/>
      <use xlink:href="#DejaVuSans-2f" transform="translate(1980.46875 0)"/>
      <use xlink:href="#DejaVuSans-34" transform="translate(2014.160156 0)"/>
      <use xlink:href="#DejaVuSans-33" transform="translate(2077.783203 0)"/>
      <use xlink:href="#DejaVuSans-6c" transform="translate(2141.40625 0)"/>
      <use xlink:href="#DejaVuSans-31" transform="translate(2169.189453 0)"/>
      <use xlink:href="#DejaVuSans-2f" transform="translate(2232.8125 0)"/>
      <use xlink:href="#DejaVuSans-32" transform="translate(2266.503906 0)"/>
      <use xlink:href="#DejaVuSans-68" transform="translate(2330.126953 0)"/>
      <use xlink:href="#DejaVuSans-31" transform="translate(2393.505859 0)"/>
      <use xlink:href="#DejaVuSans-36" transform="translate(2457.128906 0)"/>
      <use xlink:href="#DejaVuSans-2f" transform="translate(2520.751953 0)"/>
      <use xlink:href="#DejaVuSans-36" transform="translate(2554.443359 0)"/>
      <use xlink:href="#DejaVuSans-34" transform="translate(2618.066406 0)"/>
      <use xlink:href="#DejaVuSans-2f" transform="translate(2681.689453 0)"/>
      <use xlink:href="#DejaVuSans-32" transform="translate(2715.380859 0)"/>
      <use xlink:href="#DejaVuSans-35" transform="translate(2779.003906 0)"/>
      <use xlink:href="#DejaVuSans-36" transform="translate(2842.626953 0)"/>
      <use xlink:href="#DejaVuSans-64" transform="translate(2906.25 0)"/>
      <use xlink:href="#DejaVuSans-30" transform="translate(2969.726562 0)"/>
      <use xlink:href="#DejaVuSans-2f" transform="translate(3033.349609 0)"/>
      <use xlink:href="#DejaVuSans-30" transform="translate(3067.041016 0)"/>
      <use xlink:href="#DejaVuSans-2e" transform="translate(3130.664062 0)"/>
      <use xlink:href="#DejaVuSans-31" transform="translate(3162.451172 0)"/>
      <use xlink:href="#DejaVuSans-64" transform="translate(3226.074219 0)"/>
      <use xlink:href="#DejaVuSans-72" transform="translate(3289.550781 0)"/>
      <use xlink:href="#DejaVuSans-32" transform="translate(3330.664062 0)"/>
      <use xlink:href="#DejaVuSans-6d" transform="translate(3394.287109 0)"/>
      <use xlink:href="#DejaVuSans-6c" transform="translate(3491.699219 0)"/>
      <use xlink:href="#DejaVuSans-70" transform="translate(3519.482422 0)"/>
      <use xlink:href="#DejaVuSans-70" transform="translate(3582.958984 0)"/>
      <use xlink:href="#DejaVuSans-65" transform="translate(3646.435547 0)"/>
      <use xlink:href="#DejaVuSans-6c" transform="translate(3707.958984 0)"/>
      <use xlink:href="#DejaVuSans-6e" transform="translate(3735.742188 0)"/>
      <use xlink:href="#DejaVuSans-73" transform="translate(3799.121094 0)"/>
      <use xlink:href="#DejaVuSans-74" transform="translate(3851.220703 0)"/>
      <use xlink:href="#DejaVuSans-70" transform="translate(3890.429688 0)"/>
      <use xlink:href="#DejaVuSans-33" transform="translate(3953.90625 0)"/>
      <use xlink:href="#DejaVuSans-30" transform="translate(4017.529297 0)"/>
      <use xlink:href="#DejaVuSans-6b" transform="translate(4081.152344 0)"/>
      <use xlink:href="#DejaVuSans-7c" transform="translate(4139.0625 0)"/>
      <use xlink:href="#DejaVuSans-73" transform="translate(4172.753906 0)"/>
      <use xlink:href="#DejaVuSans-74" transform="translate(4224.853516 0)"/>
      <use xlink:href="#DejaVuSans-70" transform="translate(4264.0625 0)"/>
      <use xlink:href="#DejaVuSans-36" transform="translate(4327.539062 0)"/>
      <use xlink:href="#DejaVuSans-30" transform="translate(4391.162109 0)"/>
      <use xlink:href="#DejaVuSans-6b" transform="translate(4454.785156 0)"/>
      <use xlink:href="#DejaVuSans-30" transform="translate(4512.695312 0)"/>
      <use xlink:href="#DejaVuSans-2e" transform="translate(4576.318359 0)"/>
      <use xlink:href="#DejaVuSans-30" transform="translate(4608.105469 0)"/>
      <use xlink:href="#DejaVuSans-30" transform="translate(4671.728516 0)"/>
      <use xlink:href="#DejaVuSans-31" transform="translate(4735.351562 0)"/>
      <use xlink:href="#DejaVuSans-6c" transform="translate(4798.974609 0)"/>
      <use xlink:href="#DejaVuSans-72" transform="translate(4826.757812 0)"/>
     </g>
    </g>
    <g id="LineCollection_6">
     <path d="M 329.479625 74.234437 
L 329.479625 64.234437 
" style="fill: none; stroke: #12711c; stroke-width: 1.5"/>
    </g>
    <g id="line2d_26">
     <g>
      <use xlink:href="#m08775d5d85" x="329.479625" y="74.234437" style="fill: #12711c; stroke: #12711c"/>
     </g>
    </g>
    <g id="line2d_27">
     <g>
      <use xlink:href="#m08775d5d85" x="329.479625" y="64.234437" style="fill: #12711c; stroke: #12711c"/>
     </g>
    </g>
    <g id="line2d_28">
     <path d="M 319.479625 69.234437 
L 339.479625 69.234437 
" style="fill: none; stroke-dasharray: 2,3.3; stroke-dashoffset: 0; stroke: #12711c; stroke-width: 2"/>
    </g>
    <g id="line2d_29">
     <g>
      <use xlink:href="#m0af7928f83" x="329.479625" y="69.234437" style="fill: #12711c; stroke: #12711c"/>
     </g>
    </g>
    <g id="text_14">
     <!-- lm1/2/4l1/2/4h16/64/256d0dr0.0001/0.001lr -->
     <g style="fill: #262626" transform="translate(347.479625 72.734437) scale(0.1 -0.1)">
      <use xlink:href="#DejaVuSans-6c"/>
      <use xlink:href="#DejaVuSans-6d" transform="translate(27.783203 0)"/>
      <use xlink:href="#DejaVuSans-31" transform="translate(125.195312 0)"/>
      <use xlink:href="#DejaVuSans-2f" transform="translate(188.818359 0)"/>
      <use xlink:href="#DejaVuSans-32" transform="translate(222.509766 0)"/>
      <use xlink:href="#DejaVuSans-2f" transform="translate(286.132812 0)"/>
      <use xlink:href="#DejaVuSans-34" transform="translate(319.824219 0)"/>
      <use xlink:href="#DejaVuSans-6c" transform="translate(383.447266 0)"/>
      <use xlink:href="#DejaVuSans-31" transform="translate(411.230469 0)"/>
      <use xlink:href="#DejaVuSans-2f" transform="translate(474.853516 0)"/>
      <use xlink:href="#DejaVuSans-32" transform="translate(508.544922 0)"/>
      <use xlink:href="#DejaVuSans-2f" transform="translate(572.167969 0)"/>
      <use xlink:href="#DejaVuSans-34" transform="translate(605.859375 0)"/>
      <use xlink:href="#DejaVuSans-68" transform="translate(669.482422 0)"/>
      <use xlink:href="#DejaVuSans-31" transform="translate(732.861328 0)"/>
      <use xlink:href="#DejaVuSans-36" transform="translate(796.484375 0)"/>
      <use xlink:href="#DejaVuSans-2f" transform="translate(860.107422 0)"/>
      <use xlink:href="#DejaVuSans-36" transform="translate(893.798828 0)"/>
      <use xlink:href="#DejaVuSans-34" transform="translate(957.421875 0)"/>
      <use xlink:href="#DejaVuSans-2f" transform="translate(1021.044922 0)"/>
      <use xlink:href="#DejaVuSans-32" transform="translate(1054.736328 0)"/>
      <use xlink:href="#DejaVuSans-35" transform="translate(1118.359375 0)"/>
      <use xlink:href="#DejaVuSans-36" transform="translate(1181.982422 0)"/>
      <use xlink:href="#DejaVuSans-64" transform="translate(1245.605469 0)"/>
      <use xlink:href="#DejaVuSans-30" transform="translate(1309.082031 0)"/>
      <use xlink:href="#DejaVuSans-64" transform="translate(1372.705078 0)"/>
      <use xlink:href="#DejaVuSans-72" transform="translate(1436.181641 0)"/>
      <use xlink:href="#DejaVuSans-30" transform="translate(1477.294922 0)"/>
      <use xlink:href="#DejaVuSans-2e" transform="translate(1540.917969 0)"/>
      <use xlink:href="#DejaVuSans-30" transform="translate(1572.705078 0)"/>
      <use xlink:href="#DejaVuSans-30" transform="translate(1636.328125 0)"/>
      <use xlink:href="#DejaVuSans-30" transform="translate(1699.951172 0)"/>
      <use xlink:href="#DejaVuSans-31" transform="translate(1763.574219 0)"/>
      <use xlink:href="#DejaVuSans-2f" transform="translate(1827.197266 0)"/>
      <use xlink:href="#DejaVuSans-30" transform="translate(1860.888672 0)"/>
      <use xlink:href="#DejaVuSans-2e" transform="translate(1924.511719 0)"/>
      <use xlink:href="#DejaVuSans-30" transform="translate(1956.298828 0)"/>
      <use xlink:href="#DejaVuSans-30" transform="translate(2019.921875 0)"/>
      <use xlink:href="#DejaVuSans-31" transform="translate(2083.544922 0)"/>
      <use xlink:href="#DejaVuSans-6c" transform="translate(2147.167969 0)"/>
      <use xlink:href="#DejaVuSans-72" transform="translate(2174.951172 0)"/>
     </g>
    </g>
    <g id="LineCollection_7">
     <path d="M 329.479625 88.912562 
L 329.479625 78.912562 
" style="fill: none; stroke: #8c0800; stroke-width: 1.5"/>
    </g>
    <g id="line2d_30">
     <g>
      <use xlink:href="#m66c6d6e672" x="329.479625" y="88.912562" style="fill: #8c0800; stroke: #8c0800"/>
     </g>
    </g>
    <g id="line2d_31">
     <g>
      <use xlink:href="#m66c6d6e672" x="329.479625" y="78.912562" style="fill: #8c0800; stroke: #8c0800"/>
     </g>
    </g>
    <g id="line2d_32">
     <path d="M 319.479625 83.912562 
L 339.479625 83.912562 
" style="fill: none; stroke-dasharray: 2,3.3; stroke-dashoffset: 0; stroke: #8c0800; stroke-width: 2"/>
    </g>
    <g id="line2d_33">
     <g>
      <use xlink:href="#m367819789c" x="329.479625" y="83.912562" style="fill: #8c0800; stroke: #8c0800"/>
     </g>
    </g>
    <g id="text_15">
     <!-- ssms41/4/8/16/32l16/64/256d0/0.1dr0.0001/0.001lr [ends 50,100,150] -->
     <g style="fill: #262626" transform="translate(347.479625 87.412562) scale(0.1 -0.1)">
      <defs>
       <path id="DejaVuSans-5b" d="M 550 4863 
L 1875 4863 
L 1875 4416 
L 1125 4416 
L 1125 -397 
L 1875 -397 
L 1875 -844 
L 550 -844 
L 550 4863 
z
" transform="scale(0.015625)"/>
       <path id="DejaVuSans-2c" d="M 750 794 
L 1409 794 
L 1409 256 
L 897 -744 
L 494 -744 
L 750 256 
L 750 794 
z
" transform="scale(0.015625)"/>
       <path id="DejaVuSans-5d" d="M 1947 4863 
L 1947 -844 
L 622 -844 
L 622 -397 
L 1369 -397 
L 1369 4416 
L 622 4416 
L 622 4863 
L 1947 4863 
z
" transform="scale(0.015625)"/>
      </defs>
      <use xlink:href="#DejaVuSans-73"/>
      <use xlink:href="#DejaVuSans-73" transform="translate(52.099609 0)"/>
      <use xlink:href="#DejaVuSans-6d" transform="translate(104.199219 0)"/>
      <use xlink:href="#DejaVuSans-73" transform="translate(201.611328 0)"/>
      <use xlink:href="#DejaVuSans-34" transform="translate(253.710938 0)"/>
      <use xlink:href="#DejaVuSans-31" transform="translate(317.333984 0)"/>
      <use xlink:href="#DejaVuSans-2f" transform="translate(380.957031 0)"/>
      <use xlink:href="#DejaVuSans-34" transform="translate(414.648438 0)"/>
      <use xlink:href="#DejaVuSans-2f" transform="translate(478.271484 0)"/>
      <use xlink:href="#DejaVuSans-38" transform="translate(511.962891 0)"/>
      <use xlink:href="#DejaVuSans-2f" transform="translate(575.585938 0)"/>
      <use xlink:href="#DejaVuSans-31" transform="translate(609.277344 0)"/>
      <use xlink:href="#DejaVuSans-36" transform="translate(672.900391 0)"/>
      <use xlink:href="#DejaVuSans-2f" transform="translate(736.523438 0)"/>
      <use xlink:href="#DejaVuSans-33" transform="translate(770.214844 0)"/>
      <use xlink:href="#DejaVuSans-32" transform="translate(833.837891 0)"/>
      <use xlink:href="#DejaVuSans-6c" transform="translate(897.460938 0)"/>
      <use xlink:href="#DejaVuSans-31" transform="translate(925.244141 0)"/>
      <use xlink:href="#DejaVuSans-36" transform="translate(988.867188 0)"/>
      <use xlink:href="#DejaVuSans-2f" transform="translate(1052.490234 0)"/>
      <use xlink:href="#DejaVuSans-36" transform="translate(1086.181641 0)"/>
      <use xlink:href="#DejaVuSans-34" transform="translate(1149.804688 0)"/>
      <use xlink:href="#DejaVuSans-2f" transform="translate(1213.427734 0)"/>
      <use xlink:href="#DejaVuSans-32" transform="translate(1247.119141 0)"/>
      <use xlink:href="#DejaVuSans-35" transform="translate(1310.742188 0)"/>
      <use xlink:href="#DejaVuSans-36" transform="translate(1374.365234 0)"/>
      <use xlink:href="#DejaVuSans-64" transform="translate(1437.988281 0)"/>
      <use xlink:href="#DejaVuSans-30" transform="translate(1501.464844 0)"/>
      <use xlink:href="#DejaVuSans-2f" transform="translate(1565.087891 0)"/>
      <use xlink:href="#DejaVuSans-30" transform="translate(1598.779297 0)"/>
      <use xlink:href="#DejaVuSans-2e" transform="translate(1662.402344 0)"/>
      <use xlink:href="#DejaVuSans-31" transform="translate(1694.189453 0)"/>
      <use xlink:href="#DejaVuSans-64" transform="translate(1757.8125 0)"/>
      <use xlink:href="#DejaVuSans-72" transform="translate(1821.289062 0)"/>
      <use xlink:href="#DejaVuSans-30" transform="translate(1862.402344 0)"/>
      <use xlink:href="#DejaVuSans-2e" transform="translate(1926.025391 0)"/>
      <use xlink:href="#DejaVuSans-30" transform="translate(1957.8125 0)"/>
      <use xlink:href="#DejaVuSans-30" transform="translate(2021.435547 0)"/>
      <use xlink:href="#DejaVuSans-30" transform="translate(2085.058594 0)"/>
      <use xlink:href="#DejaVuSans-31" transform="translate(2148.681641 0)"/>
      <use xlink:href="#DejaVuSans-2f" transform="translate(2212.304688 0)"/>
      <use xlink:href="#DejaVuSans-30" transform="translate(2245.996094 0)"/>
      <use xlink:href="#DejaVuSans-2e" transform="translate(2309.619141 0)"/>
      <use xlink:href="#DejaVuSans-30" transform="translate(2341.40625 0)"/>
      <use xlink:href="#DejaVuSans-30" transform="translate(2405.029297 0)"/>
      <use xlink:href="#DejaVuSans-31" transform="translate(2468.652344 0)"/>
      <use xlink:href="#DejaVuSans-6c" transform="translate(2532.275391 0)"/>
      <use xlink:href="#DejaVuSans-72" transform="translate(2560.058594 0)"/>
      <use xlink:href="#DejaVuSans-20" transform="translate(2601.171875 0)"/>
      <use xlink:href="#DejaVuSans-5b" transform="translate(2632.958984 0)"/>
      <use xlink:href="#DejaVuSans-65" transform="translate(2671.972656 0)"/>
      <use xlink:href="#DejaVuSans-6e" transform="translate(2733.496094 0)"/>
      <use xlink:href="#DejaVuSans-64" transform="translate(2796.875 0)"/>
      <use xlink:href="#DejaVuSans-73" transform="translate(2860.351562 0)"/>
      <use xlink:href="#DejaVuSans-20" transform="translate(2912.451172 0)"/>
      <use xlink:href="#DejaVuSans-35" transform="translate(2944.238281 0)"/>
      <use xlink:href="#DejaVuSans-30" transform="translate(3007.861328 0)"/>
      <use xlink:href="#DejaVuSans-2c" transform="translate(3071.484375 0)"/>
      <use xlink:href="#DejaVuSans-31" transform="translate(3103.271484 0)"/>
      <use xlink:href="#DejaVuSans-30" transform="translate(3166.894531 0)"/>
      <use xlink:href="#DejaVuSans-30" transform="translate(3230.517578 0)"/>
      <use xlink:href="#DejaVuSans-2c" transform="translate(3294.140625 0)"/>
      <use xlink:href="#DejaVuSans-31" transform="translate(3325.927734 0)"/>
      <use xlink:href="#DejaVuSans-35" transform="translate(3389.550781 0)"/>
      <use xlink:href="#DejaVuSans-30" transform="translate(3453.173828 0)"/>
      <use xlink:href="#DejaVuSans-5d" transform="translate(3516.796875 0)"/>
     </g>
    </g>
    <g id="LineCollection_8">
     <path d="M 329.479625 103.590687 
L 329.479625 93.590687 
" style="fill: none; stroke: #591e71; stroke-width: 1.5"/>
    </g>
    <g id="line2d_34">
     <g>
      <use xlink:href="#mef685eff82" x="329.479625" y="103.590687" style="fill: #591e71; stroke: #591e71"/>
     </g>
    </g>
    <g id="line2d_35">
     <g>
      <use xlink:href="#mef685eff82" x="329.479625" y="93.590687" style="fill: #591e71; stroke: #591e71"/>
     </g>
    </g>
    <g id="line2d_36">
     <path d="M 319.479625 98.590687 
L 339.479625 98.590687 
" style="fill: none; stroke-dasharray: 2,3.3; stroke-dashoffset: 0; stroke: #591e71; stroke-width: 2"/>
    </g>
    <g id="line2d_37">
     <g>
      <use xlink:href="#m9e3b55eac2" x="329.479625" y="98.590687" style="fill: #591e71; stroke: #591e71"/>
     </g>
    </g>
    <g id="text_16">
     <!-- ssms44l16d0/0.1dr2/4mlppelnstp30k0.001lr [ends 49,99,149] -->
     <g style="fill: #262626" transform="translate(347.479625 102.090687) scale(0.1 -0.1)">
      <defs>
       <path id="DejaVuSans-39" d="M 703 97 
L 703 672 
Q 941 559 1184 500 
Q 1428 441 1663 441 
Q 2288 441 2617 861 
Q 2947 1281 2994 2138 
Q 2813 1869 2534 1725 
Q 2256 1581 1919 1581 
Q 1219 1581 811 2004 
Q 403 2428 403 3163 
Q 403 3881 828 4315 
Q 1253 4750 1959 4750 
Q 2769 4750 3195 4129 
Q 3622 3509 3622 2328 
Q 3622 1225 3098 567 
Q 2575 -91 1691 -91 
Q 1453 -91 1209 -44 
Q 966 3 703 97 
z
M 1959 2075 
Q 2384 2075 2632 2365 
Q 2881 2656 2881 3163 
Q 2881 3666 2632 3958 
Q 2384 4250 1959 4250 
Q 1534 4250 1286 3958 
Q 1038 3666 1038 3163 
Q 1038 2656 1286 2365 
Q 1534 2075 1959 2075 
z
" transform="scale(0.015625)"/>
      </defs>
      <use xlink:href="#DejaVuSans-73"/>
      <use xlink:href="#DejaVuSans-73" transform="translate(52.099609 0)"/>
      <use xlink:href="#DejaVuSans-6d" transform="translate(104.199219 0)"/>
      <use xlink:href="#DejaVuSans-73" transform="translate(201.611328 0)"/>
      <use xlink:href="#DejaVuSans-34" transform="translate(253.710938 0)"/>
      <use xlink:href="#DejaVuSans-34" transform="translate(317.333984 0)"/>
      <use xlink:href="#DejaVuSans-6c" transform="translate(380.957031 0)"/>
      <use xlink:href="#DejaVuSans-31" transform="translate(408.740234 0)"/>
      <use xlink:href="#DejaVuSans-36" transform="translate(472.363281 0)"/>
      <use xlink:href="#DejaVuSans-64" transform="translate(535.986328 0)"/>
      <use xlink:href="#DejaVuSans-30" transform="translate(599.462891 0)"/>
      <use xlink:href="#DejaVuSans-2f" transform="translate(663.085938 0)"/>
      <use xlink:href="#DejaVuSans-30" transform="translate(696.777344 0)"/>
      <use xlink:href="#DejaVuSans-2e" transform="translate(760.400391 0)"/>
      <use xlink:href="#DejaVuSans-31" transform="translate(792.1875 0)"/>
      <use xlink:href="#DejaVuSans-64" transform="translate(855.810547 0)"/>
      <use xlink:href="#DejaVuSans-72" transform="translate(919.287109 0)"/>
      <use xlink:href="#DejaVuSans-32" transform="translate(960.400391 0)"/>
      <use xlink:href="#DejaVuSans-2f" transform="translate(1024.023438 0)"/>
      <use xlink:href="#DejaVuSans-34" transform="translate(1057.714844 0)"/>
      <use xlink:href="#DejaVuSans-6d" transform="translate(1121.337891 0)"/>
      <use xlink:href="#DejaVuSans-6c" transform="translate(1218.75 0)"/>
      <use xlink:href="#DejaVuSans-70" transform="translate(1246.533203 0)"/>
      <use xlink:href="#DejaVuSans-70" transform="translate(1310.009766 0)"/>
      <use xlink:href="#DejaVuSans-65" transform="translate(1373.486328 0)"/>
      <use xlink:href="#DejaVuSans-6c" transform="translate(1435.009766 0)"/>
      <use xlink:href="#DejaVuSans-6e" transform="translate(1462.792969 0)"/>
      <use xlink:href="#DejaVuSans-73" transform="translate(1526.171875 0)"/>
      <use xlink:href="#DejaVuSans-74" transform="translate(1578.271484 0)"/>
      <use xlink:href="#DejaVuSans-70" transform="translate(1617.480469 0)"/>
      <use xlink:href="#DejaVuSans-33" transform="translate(1680.957031 0)"/>
      <use xlink:href="#DejaVuSans-30" transform="translate(1744.580078 0)"/>
      <use xlink:href="#DejaVuSans-6b" transform="translate(1808.203125 0)"/>
      <use xlink:href="#DejaVuSans-30" transform="translate(1866.113281 0)"/>
      <use xlink:href="#DejaVuSans-2e" transform="translate(1929.736328 0)"/>
      <use xlink:href="#DejaVuSans-30" transform="translate(1961.523438 0)"/>
      <use xlink:href="#DejaVuSans-30" transform="translate(2025.146484 0)"/>
      <use xlink:href="#DejaVuSans-31" transform="translate(2088.769531 0)"/>
      <use xlink:href="#DejaVuSans-6c" transform="translate(2152.392578 0)"/>
      <use xlink:href="#DejaVuSans-72" transform="translate(2180.175781 0)"/>
      <use xlink:href="#DejaVuSans-20" transform="translate(2221.289062 0)"/>
      <use xlink:href="#DejaVuSans-5b" transform="translate(2253.076172 0)"/>
      <use xlink:href="#DejaVuSans-65" transform="translate(2292.089844 0)"/>
      <use xlink:href="#DejaVuSans-6e" transform="translate(2353.613281 0)"/>
      <use xlink:href="#DejaVuSans-64" transform="translate(2416.992188 0)"/>
      <use xlink:href="#DejaVuSans-73" transform="translate(2480.46875 0)"/>
      <use xlink:href="#DejaVuSans-20" transform="translate(2532.568359 0)"/>
      <use xlink:href="#DejaVuSans-34" transform="translate(2564.355469 0)"/>
      <use xlink:href="#DejaVuSans-39" transform="translate(2627.978516 0)"/>
      <use xlink:href="#DejaVuSans-2c" transform="translate(2691.601562 0)"/>
      <use xlink:href="#DejaVuSans-39" transform="translate(2723.388672 0)"/>
      <use xlink:href="#DejaVuSans-39" transform="translate(2787.011719 0)"/>
      <use xlink:href="#DejaVuSans-2c" transform="translate(2850.634766 0)"/>
      <use xlink:href="#DejaVuSans-31" transform="translate(2882.421875 0)"/>
      <use xlink:href="#DejaVuSans-34" transform="translate(2946.044922 0)"/>
      <use xlink:href="#DejaVuSans-39" transform="translate(3009.667969 0)"/>
      <use xlink:href="#DejaVuSans-5d" transform="translate(3073.291016 0)"/>
     </g>
    </g>
   </g>
  </g>
 </g>
 <defs>
  <clipPath id="pf7bbbe1af1">
   <rect x="85.236" y="41.136" width="758.028" height="393.828"/>
  </clipPath>
 </defs>
</svg>
